<?xml version="1.0" encoding="UTF-8"?>
<!DOCTYPE svg PUBLIC "-//W3C//DTD SVG 1.1//EN" "http://www.w3.org/Graphics/SVG/1.1/DTD/svg11.dtd">
<svg version="1.2" width="10mm" height="10mm" viewBox="0 0 1000 1000" preserveAspectRatio="xMidYMid" fill-rule="evenodd" stroke-width="28.222" stroke-linejoin="round" xmlns="http://www.w3.org/2000/svg" xmlns:ooo="http://xml.openoffice.org/svg/export" xmlns:xlink="http://www.w3.org/1999/xlink" xmlns:presentation="http://sun.com/xmlns/staroffice/presentation" xmlns:smil="http://www.w3.org/2001/SMIL20/" xmlns:anim="urn:oasis:names:tc:opendocument:xmlns:animation:1.0" xml:space="preserve">
 <defs class="ClipPathGroup">
  <clipPath id="presentation_clip_path" clipPathUnits="userSpaceOnUse">
   <rect x="0" y="0" width="1000" height="1000"/>
  </clipPath>
  <clipPath id="presentation_clip_path_shrink" clipPathUnits="userSpaceOnUse">
   <rect x="1" y="1" width="998" height="998"/>
  </clipPath>
 </defs>
 <defs class="TextShapeIndex">
  <g ooo:slide="id1" ooo:id-list="id3 id4 id5 id6 id7 id8 id9 id10 id11"/>
 </defs>
 <defs class="EmbeddedBulletChars">
  <g id="bullet-char-template-57356" transform="scale(0.00048828125,-0.00048828125)">
   <path d="M 580,1141 L 1163,571 580,0 -4,571 580,1141 Z"/>
  </g>
  <g id="bullet-char-template-57354" transform="scale(0.00048828125,-0.00048828125)">
   <path d="M 8,1128 L 1137,1128 1137,0 8,0 8,1128 Z"/>
  </g>
  <g id="bullet-char-template-10146" transform="scale(0.00048828125,-0.00048828125)">
   <path d="M 174,0 L 602,739 174,1481 1456,739 174,0 Z M 1358,739 L 309,1346 659,739 1358,739 Z"/>
  </g>
  <g id="bullet-char-template-10132" transform="scale(0.00048828125,-0.00048828125)">
   <path d="M 2015,739 L 1276,0 717,0 1260,543 174,543 174,936 1260,936 717,1481 1274,1481 2015,739 Z"/>
  </g>
  <g id="bullet-char-template-10007" transform="scale(0.00048828125,-0.00048828125)">
   <path d="M 0,-2 C -7,14 -16,27 -25,37 L 356,567 C 262,823 215,952 215,954 215,979 228,992 255,992 264,992 276,990 289,987 310,991 331,999 354,1012 L 381,999 492,748 772,1049 836,1024 860,1049 C 881,1039 901,1025 922,1006 886,937 835,863 770,784 769,783 710,716 594,584 L 774,223 C 774,196 753,168 711,139 L 727,119 C 717,90 699,76 672,76 641,76 570,178 457,381 L 164,-76 C 142,-110 111,-127 72,-127 30,-127 9,-110 8,-76 1,-67 -2,-52 -2,-32 -2,-23 -1,-13 0,-2 Z"/>
  </g>
  <g id="bullet-char-template-10004" transform="scale(0.00048828125,-0.00048828125)">
   <path d="M 285,-33 C 182,-33 111,30 74,156 52,228 41,333 41,471 41,549 55,616 82,672 116,743 169,778 240,778 293,778 328,747 346,684 L 369,508 C 377,444 397,411 428,410 L 1163,1116 C 1174,1127 1196,1133 1229,1133 1271,1133 1292,1118 1292,1087 L 1292,965 C 1292,929 1282,901 1262,881 L 442,47 C 390,-6 338,-33 285,-33 Z"/>
  </g>
  <g id="bullet-char-template-9679" transform="scale(0.00048828125,-0.00048828125)">
   <path d="M 813,0 C 632,0 489,54 383,161 276,268 223,411 223,592 223,773 276,916 383,1023 489,1130 632,1184 813,1184 992,1184 1136,1130 1245,1023 1353,916 1407,772 1407,592 1407,412 1353,268 1245,161 1136,54 992,0 813,0 Z"/>
  </g>
  <g id="bullet-char-template-8226" transform="scale(0.00048828125,-0.00048828125)">
   <path d="M 346,457 C 273,457 209,483 155,535 101,586 74,649 74,723 74,796 101,859 155,911 209,963 273,989 346,989 419,989 480,963 531,910 582,859 608,796 608,723 608,648 583,586 532,535 482,483 420,457 346,457 Z"/>
  </g>
  <g id="bullet-char-template-8211" transform="scale(0.00048828125,-0.00048828125)">
   <path d="M -4,459 L 1135,459 1135,606 -4,606 -4,459 Z"/>
  </g>
  <g id="bullet-char-template-61548" transform="scale(0.00048828125,-0.00048828125)">
   <path d="M 173,740 C 173,903 231,1043 346,1159 462,1274 601,1332 765,1332 928,1332 1067,1274 1183,1159 1299,1043 1357,903 1357,740 1357,577 1299,437 1183,322 1067,206 928,148 765,148 601,148 462,206 346,322 231,437 173,577 173,740 Z"/>
  </g>
 </defs>
 <g>
  <g id="id2" class="Master_Slide">
   <g id="bg-id2" class="Background"/>
   <g id="bo-id2" class="BackgroundObjects"/>
  </g>
 </g>
 <g class="SlideGroup">
  <g>
   <g id="container-id1">
    <g id="id1" class="Slide" clip-path="url(#presentation_clip_path)">
     <g class="Page">
      <g class="Group">
       <g class="com.sun.star.drawing.PolyPolygonShape">
        <g id="id3">
         <rect class="BoundingBox" stroke="none" fill="none" x="146" y="79" width="732" height="833"/>
         <path fill="rgb(238,238,238)" stroke="none" d="M 158,716 L 147,306 522,80 874,304 876,718 516,910 158,716 Z"/>
         <path fill="none" stroke="rgb(52,101,164)" d="M 158,716 L 147,306 522,80 874,304 876,718 516,910 158,716 Z"/>
        </g>
       </g>
       <g class="com.sun.star.drawing.ClosedBezierShape">
        <g id="id4">
         <rect class="BoundingBox" stroke="none" fill="none" x="119" y="54" width="783" height="897"/>
         <path fill="rgb(0,0,0)" stroke="none" d="M 895,278 C 898,283 900,289 900,294 L 900,709 C 900,715 898,721 895,726 893,730 889,734 884,737 L 526,945 C 521,947 515,949 510,949 504,949 499,947 494,945 L 136,737 C 131,734 127,730 124,726 122,721 120,715 120,709 L 120,294 C 120,289 122,283 124,278 127,274 131,269 136,267 L 494,59 C 499,57 504,55 510,55 515,55 521,57 526,59 L 884,267 C 889,269 893,274 895,278 Z M 184,691 L 479,861 479,520 184,354 184,691 Z M 835,691 L 835,353 544,517 544,860 835,691 Z M 510,124 L 214,296 508,462 805,296 510,124 Z"/>
         <path fill="none" stroke="rgb(255,255,255)" d="M 895,278 C 898,283 900,289 900,294 L 900,709 C 900,715 898,721 895,726 893,730 889,734 884,737 L 526,945 C 521,947 515,949 510,949 504,949 499,947 494,945 L 136,737 C 131,734 127,730 124,726 122,721 120,715 120,709 L 120,294 C 120,289 122,283 124,278 127,274 131,269 136,267 L 494,59 C 499,57 504,55 510,55 515,55 521,57 526,59 L 884,267 C 889,269 893,274 895,278 Z"/>
         <path fill="none" stroke="rgb(255,255,255)" d="M 184,691 L 479,861 479,520 184,354 184,691 Z"/>
         <path fill="none" stroke="rgb(255,255,255)" d="M 835,691 L 835,353 544,517 544,860 835,691 Z"/>
         <path fill="none" stroke="rgb(255,255,255)" d="M 510,124 L 214,296 508,462 805,296 510,124 Z"/>
        </g>
       </g>
       <g class="com.sun.star.drawing.ClosedBezierShape">
        <g id="id5">
         <rect class="BoundingBox" stroke="none" fill="none" x="459" y="324" width="105" height="82"/>
         <path fill="rgb(0,0,0)" stroke="none" d="M 510,325 L 511,325 C 519,325 526,327 532,329 540,331 546,336 553,342 556,346 558,349 560,353 561,357 562,360 562,364 562,367 562,369 561,372 560,376 559,379 558,382 557,382 557,382 557,382 555,386 552,389 549,392 546,395 543,397 539,399 535,401 530,402 526,403 521,404 517,404 512,404 511,404 511,404 511,404 505,404 500,404 496,403 491,402 487,401 483,399 479,397 476,395 473,392 470,389 467,386 465,382 463,379 462,376 461,372 460,369 460,367 460,364 460,360 461,357 462,353 464,349 466,346 469,342 476,336 482,331 489,329 495,327 502,325 510,325 Z"/>
         <path fill="none" stroke="rgb(255,255,255)" d="M 510,325 L 511,325 C 519,325 526,327 532,329 540,331 546,336 553,342 556,346 558,349 560,353 561,357 562,360 562,364 562,367 562,369 561,372 560,376 559,379 558,382 L 557,382 C 555,386 552,389 549,392 546,395 543,397 539,399 535,401 530,402 526,403 521,404 517,404 512,404 L 511,404 C 505,404 500,404 496,403 491,402 487,401 483,399 479,397 476,395 473,392 470,389 467,386 465,382 463,379 462,376 461,372 460,369 460,367 460,364 460,360 461,357 462,353 464,349 466,346 469,342 476,336 482,331 489,329 495,327 502,325 510,325 Z"/>
        </g>
       </g>
       <g class="com.sun.star.drawing.ClosedBezierShape">
        <g id="id6">
         <rect class="BoundingBox" stroke="none" fill="none" x="459" y="196" width="105" height="82"/>
         <path fill="rgb(0,0,0)" stroke="none" d="M 510,197 L 511,197 C 519,197 526,199 532,201 540,203 546,208 553,214 556,218 558,221 560,225 561,229 562,232 562,236 562,239 562,241 561,244 560,248 559,251 558,254 557,254 557,254 557,254 555,258 552,261 549,264 546,267 543,269 539,271 535,273 530,274 526,275 521,276 517,276 512,276 511,276 511,276 511,276 505,276 500,276 496,275 491,274 487,273 483,271 479,269 476,267 473,264 470,261 467,258 465,254 463,251 462,248 461,244 460,241 460,239 460,236 460,232 461,229 462,225 464,221 466,218 469,214 476,208 482,203 489,201 495,199 502,197 510,197 Z"/>
         <path fill="none" stroke="rgb(255,255,255)" d="M 510,197 L 511,197 C 519,197 526,199 532,201 540,203 546,208 553,214 556,218 558,221 560,225 561,229 562,232 562,236 562,239 562,241 561,244 560,248 559,251 558,254 L 557,254 C 555,258 552,261 549,264 546,267 543,269 539,271 535,273 530,274 526,275 521,276 517,276 512,276 L 511,276 C 505,276 500,276 496,275 491,274 487,273 483,271 479,269 476,267 473,264 470,261 467,258 465,254 463,251 462,248 461,244 460,241 460,239 460,236 460,232 461,229 462,225 464,221 466,218 469,214 476,208 482,203 489,201 495,199 502,197 510,197 Z"/>
        </g>
       </g>
       <g class="com.sun.star.drawing.ClosedBezierShape">
        <g id="id7">
         <rect class="BoundingBox" stroke="none" fill="none" x="341" y="261" width="105" height="82"/>
         <path fill="rgb(0,0,0)" stroke="none" d="M 392,262 L 393,262 C 401,262 408,264 414,266 422,268 428,273 435,279 438,283 440,286 442,290 443,294 444,297 444,301 444,304 444,306 443,309 442,313 441,316 440,319 439,319 439,319 439,319 437,323 434,326 431,329 428,332 425,334 421,336 417,338 412,339 408,340 403,341 399,341 394,341 393,341 393,341 393,341 387,341 382,341 378,340 373,339 369,338 365,336 361,334 358,332 355,329 352,326 349,323 347,319 345,316 344,313 343,309 342,306 342,304 342,301 342,297 343,294 344,290 346,286 348,283 351,279 358,273 364,268 371,266 377,264 384,262 392,262 Z"/>
         <path fill="none" stroke="rgb(255,255,255)" d="M 392,262 L 393,262 C 401,262 408,264 414,266 422,268 428,273 435,279 438,283 440,286 442,290 443,294 444,297 444,301 444,304 444,306 443,309 442,313 441,316 440,319 L 439,319 C 437,323 434,326 431,329 428,332 425,334 421,336 417,338 412,339 408,340 403,341 399,341 394,341 L 393,341 C 387,341 382,341 378,340 373,339 369,338 365,336 361,334 358,332 355,329 352,326 349,323 347,319 345,316 344,313 343,309 342,306 342,304 342,301 342,297 343,294 344,290 346,286 348,283 351,279 358,273 364,268 371,266 377,264 384,262 392,262 Z"/>
        </g>
       </g>
       <g class="com.sun.star.drawing.ClosedBezierShape">
        <g id="id8">
         <rect class="BoundingBox" stroke="none" fill="none" x="570" y="261" width="105" height="82"/>
         <path fill="rgb(0,0,0)" stroke="none" d="M 621,262 L 622,262 C 630,262 637,264 643,266 651,268 657,273 664,279 667,283 669,286 671,290 672,294 673,297 673,301 673,304 673,306 672,309 671,313 670,316 669,319 668,319 668,319 668,319 666,323 663,326 660,329 657,332 654,334 650,336 646,338 641,339 637,340 632,341 628,341 623,341 622,341 622,341 622,341 616,341 611,341 607,340 602,339 598,338 594,336 590,334 587,332 584,329 581,326 578,323 576,319 574,316 573,313 572,309 571,306 571,304 571,301 571,297 572,294 573,290 575,286 577,283 580,279 587,273 593,268 600,266 606,264 613,262 621,262 Z"/>
         <path fill="none" stroke="rgb(255,255,255)" d="M 621,262 L 622,262 C 630,262 637,264 643,266 651,268 657,273 664,279 667,283 669,286 671,290 672,294 673,297 673,301 673,304 673,306 672,309 671,313 670,316 669,319 L 668,319 C 666,323 663,326 660,329 657,332 654,334 650,336 646,338 641,339 637,340 632,341 628,341 623,341 L 622,341 C 616,341 611,341 607,340 602,339 598,338 594,336 590,334 587,332 584,329 581,326 578,323 576,319 574,316 573,313 572,309 571,306 571,304 571,301 571,297 572,294 573,290 575,286 577,283 580,279 587,273 593,268 600,266 606,264 613,262 621,262 Z"/>
        </g>
       </g>
       <g class="com.sun.star.drawing.ClosedBezierShape">
        <g id="id9">
         <rect class="BoundingBox" stroke="none" fill="none" x="586" y="654" width="89" height="101"/>
         <path fill="rgb(0,0,0)" stroke="none" d="M 595,685 L 595,684 C 599,677 604,671 609,668 614,663 622,659 631,656 636,655 639,655 644,656 647,656 651,657 654,659 657,661 659,662 661,664 663,667 665,669 668,673 670,676 671,681 672,685 673,689 673,692 673,697 673,701 672,705 670,710 669,714 666,718 663,724 L 663,724 C 660,729 658,732 655,736 652,739 649,743 645,745 642,747 638,749 634,750 631,752 626,753 621,752 L 621,753 C 618,752 615,752 611,751 608,751 606,749 603,748 600,746 597,743 595,740 592,737 591,733 589,729 587,720 587,712 588,705 589,699 591,692 595,685 Z"/>
         <path fill="none" stroke="rgb(255,255,255)" d="M 595,685 L 595,684 C 599,677 604,671 609,668 614,663 622,659 631,656 636,655 639,655 644,656 647,656 651,657 654,659 657,661 659,662 661,664 663,667 665,669 668,673 670,676 671,681 672,685 673,689 673,692 673,697 673,701 672,705 670,710 669,714 666,718 663,724 L 663,724 C 660,729 658,732 655,736 652,739 649,743 645,745 642,747 638,749 634,750 631,752 626,753 621,752 L 621,753 611,751 C 608,751 606,749 603,748 600,746 597,743 595,740 592,737 591,733 589,729 587,720 587,712 588,705 589,699 591,692 595,685 Z"/>
        </g>
       </g>
       <g class="com.sun.star.drawing.ClosedBezierShape">
        <g id="id10">
         <rect class="BoundingBox" stroke="none" fill="none" x="700" y="458" width="89" height="100"/>
         <path fill="rgb(0,0,0)" stroke="none" d="M 708,488 L 709,487 C 713,480 717,475 723,471 728,466 735,463 744,460 749,459 753,459 758,459 761,460 765,461 768,463 770,464 773,466 775,468 777,470 779,472 781,476 784,480 785,484 786,488 787,492 787,496 787,501 786,505 785,509 783,514 782,518 780,522 777,527 777,527 777,527 777,527 774,532 772,536 768,540 765,543 762,547 759,548 755,551 752,552 748,554 743,555 739,556 734,556 731,556 728,555 725,555 722,554 719,553 717,551 713,549 711,547 708,544 705,540 704,537 702,532 700,524 700,516 701,508 702,502 704,495 708,488 Z"/>
         <path fill="none" stroke="rgb(255,255,255)" d="M 708,488 L 709,487 C 713,480 717,475 723,471 728,466 735,463 744,460 749,459 753,459 758,459 761,460 765,461 768,463 770,464 773,466 775,468 777,470 779,472 781,476 784,480 785,484 786,488 787,492 787,496 787,501 786,505 785,509 783,514 782,518 780,522 777,527 L 777,527 C 774,532 772,536 768,540 765,543 762,547 759,548 755,551 752,552 748,554 743,555 739,556 734,556 L 725,555 C 722,554 719,553 717,551 713,549 711,547 708,544 705,540 704,537 702,532 700,524 700,516 701,508 702,502 704,495 708,488 Z"/>
        </g>
       </g>
       <g class="com.sun.star.drawing.ClosedBezierShape">
        <g id="id11">
         <rect class="BoundingBox" stroke="none" fill="none" x="287" y="555" width="90" height="100"/>
         <path fill="rgb(0,0,0)" stroke="none" d="M 367,585 L 366,584 C 362,577 358,572 352,568 347,563 340,559 331,556 326,556 322,556 318,556 314,557 310,558 307,560 305,561 303,563 301,565 299,567 296,570 294,573 292,577 291,581 289,585 288,589 288,593 288,598 289,602 290,606 292,611 293,615 295,619 298,623 298,624 298,624 298,624 301,629 303,633 307,637 310,640 313,643 317,646 320,647 324,650 327,651 332,652 336,653 341,653 344,653 347,652 350,652 353,651 356,649 359,648 362,646 364,644 367,641 370,637 371,634 373,629 375,620 375,613 374,605 373,599 371,592 367,585 Z"/>
         <path fill="none" stroke="rgb(255,255,255)" d="M 367,585 L 366,584 C 362,577 358,572 352,568 347,563 340,559 331,556 326,556 322,556 318,556 314,557 310,558 307,560 305,561 303,563 301,565 299,567 296,570 294,573 292,577 291,581 289,585 288,589 288,593 288,598 289,602 290,606 292,611 293,615 295,619 298,623 298,624 298,624 298,624 301,629 303,633 307,637 310,640 313,643 317,646 320,647 324,650 327,651 332,652 336,653 341,653 344,653 347,652 350,652 353,651 356,649 359,648 362,646 364,644 367,641 370,637 371,634 373,629 375,620 375,613 374,605 373,599 371,592 367,585 Z"/>
        </g>
       </g>
      </g>
     </g>
    </g>
   </g>
  </g>
 </g>
</svg>