<?xml version="1.0" encoding="UTF-8"?>
<!DOCTYPE svg PUBLIC "-//W3C//DTD SVG 1.1//EN" "http://www.w3.org/Graphics/SVG/1.1/DTD/svg11.dtd">
<svg version="1.2" width="10mm" height="10mm" viewBox="0 0 1000 1000" preserveAspectRatio="xMidYMid" fill-rule="evenodd" stroke-width="28.222" stroke-linejoin="round" xmlns="http://www.w3.org/2000/svg" xmlns:ooo="http://xml.openoffice.org/svg/export" xmlns:xlink="http://www.w3.org/1999/xlink" xmlns:presentation="http://sun.com/xmlns/staroffice/presentation" xmlns:smil="http://www.w3.org/2001/SMIL20/" xmlns:anim="urn:oasis:names:tc:opendocument:xmlns:animation:1.0" xml:space="preserve">
 <defs class="ClipPathGroup">
  <clipPath id="presentation_clip_path" clipPathUnits="userSpaceOnUse">
   <rect x="0" y="0" width="1000" height="1000"/>
  </clipPath>
  <clipPath id="presentation_clip_path_shrink" clipPathUnits="userSpaceOnUse">
   <rect x="1" y="1" width="998" height="998"/>
  </clipPath>
 </defs>
 <defs class="TextShapeIndex">
  <g ooo:slide="id1" ooo:id-list="id3 id4 id5"/>
 </defs>
 <defs class="EmbeddedBulletChars">
  <g id="bullet-char-template-57356" transform="scale(0.00048828125,-0.00048828125)">
   <path d="M 580,1141 L 1163,571 580,0 -4,571 580,1141 Z"/>
  </g>
  <g id="bullet-char-template-57354" transform="scale(0.00048828125,-0.00048828125)">
   <path d="M 8,1128 L 1137,1128 1137,0 8,0 8,1128 Z"/>
  </g>
  <g id="bullet-char-template-10146" transform="scale(0.00048828125,-0.00048828125)">
   <path d="M 174,0 L 602,739 174,1481 1456,739 174,0 Z M 1358,739 L 309,1346 659,739 1358,739 Z"/>
  </g>
  <g id="bullet-char-template-10132" transform="scale(0.00048828125,-0.00048828125)">
   <path d="M 2015,739 L 1276,0 717,0 1260,543 174,543 174,936 1260,936 717,1481 1274,1481 2015,739 Z"/>
  </g>
  <g id="bullet-char-template-10007" transform="scale(0.00048828125,-0.00048828125)">
   <path d="M 0,-2 C -7,14 -16,27 -25,37 L 356,567 C 262,823 215,952 215,954 215,979 228,992 255,992 264,992 276,990 289,987 310,991 331,999 354,1012 L 381,999 492,748 772,1049 836,1024 860,1049 C 881,1039 901,1025 922,1006 886,937 835,863 770,784 769,783 710,716 594,584 L 774,223 C 774,196 753,168 711,139 L 727,119 C 717,90 699,76 672,76 641,76 570,178 457,381 L 164,-76 C 142,-110 111,-127 72,-127 30,-127 9,-110 8,-76 1,-67 -2,-52 -2,-32 -2,-23 -1,-13 0,-2 Z"/>
  </g>
  <g id="bullet-char-template-10004" transform="scale(0.00048828125,-0.00048828125)">
   <path d="M 285,-33 C 182,-33 111,30 74,156 52,228 41,333 41,471 41,549 55,616 82,672 116,743 169,778 240,778 293,778 328,747 346,684 L 369,508 C 377,444 397,411 428,410 L 1163,1116 C 1174,1127 1196,1133 1229,1133 1271,1133 1292,1118 1292,1087 L 1292,965 C 1292,929 1282,901 1262,881 L 442,47 C 390,-6 338,-33 285,-33 Z"/>
  </g>
  <g id="bullet-char-template-9679" transform="scale(0.00048828125,-0.00048828125)">
   <path d="M 813,0 C 632,0 489,54 383,161 276,268 223,411 223,592 223,773 276,916 383,1023 489,1130 632,1184 813,1184 992,1184 1136,1130 1245,1023 1353,916 1407,772 1407,592 1407,412 1353,268 1245,161 1136,54 992,0 813,0 Z"/>
  </g>
  <g id="bullet-char-template-8226" transform="scale(0.00048828125,-0.00048828125)">
   <path d="M 346,457 C 273,457 209,483 155,535 101,586 74,649 74,723 74,796 101,859 155,911 209,963 273,989 346,989 419,989 480,963 531,910 582,859 608,796 608,723 608,648 583,586 532,535 482,483 420,457 346,457 Z"/>
  </g>
  <g id="bullet-char-template-8211" transform="scale(0.00048828125,-0.00048828125)">
   <path d="M -4,459 L 1135,459 1135,606 -4,606 -4,459 Z"/>
  </g>
  <g id="bullet-char-template-61548" transform="scale(0.00048828125,-0.00048828125)">
   <path d="M 173,740 C 173,903 231,1043 346,1159 462,1274 601,1332 765,1332 928,1332 1067,1274 1183,1159 1299,1043 1357,903 1357,740 1357,577 1299,437 1183,322 1067,206 928,148 765,148 601,148 462,206 346,322 231,437 173,577 173,740 Z"/>
  </g>
 </defs>
 <g>
  <g id="id2" class="Master_Slide">
   <g id="bg-id2" class="Background"/>
   <g id="bo-id2" class="BackgroundObjects"/>
  </g>
 </g>
 <g class="SlideGroup">
  <g>
   <g id="container-id1">
    <g id="id1" class="Slide" clip-path="url(#presentation_clip_path)">
     <g class="Page">
      <g class="Group">
       <g class="Group">
        <g class="com.sun.star.drawing.PolyPolygonShape">
         <g id="id3">
          <rect class="BoundingBox" stroke="none" fill="none" x="338" y="418" width="326" height="543"/>
          <path fill="rgb(255,255,255)" stroke="none" d="M 483,506 L 480,506 478,507 475,508 473,509 470,510 468,511 466,512 463,514 461,516 459,517 457,519 454,520 452,522 450,524 448,525 446,527 444,529 444,531 442,533 440,535 439,537 437,539 436,542 434,544 433,546 432,548 430,551 429,553 428,555 427,558 426,561 426,563 425,566 425,569 425,571 424,574 424,576 424,579 423,582 423,584 422,801 422,804 422,809 423,813 424,818 425,823 427,827 428,831 429,834 430,836 431,837 432,839 433,841 435,843 436,845 437,847 439,849 441,851 443,853 445,854 446,856 448,858 450,859 452,861 454,862 456,864 458,865 460,866 462,868 464,869 466,870 469,870 471,871 473,872 476,872 478,873 480,874 483,874 485,875 488,875 490,875 493,876 495,876 498,876 500,876 503,875 506,874 508,874 511,874 513,873 516,873 518,872 521,871 523,871 526,870 528,869 531,868 533,867 535,865 538,863 540,862 542,860 544,859 546,857 549,856 551,854 553,852 554,850 556,849 557,847 559,845 561,843 562,841 564,838 565,836 567,834 568,832 569,829 570,827 572,825 573,821 574,819 574,816 575,814 575,811 576,809 576,806 577,804 577,801 577,799 577,796 578,794 579,576 579,574 579,569 578,564 576,560 575,555 574,551 573,546 572,544 571,542 570,540 569,538 568,537 566,535 565,533 564,531 562,529 559,527 558,525 556,523 555,522 553,520 551,518 549,517 547,515 545,514 543,513 541,511 539,510 537,509 534,508 532,508 530,507 528,506 525,505 523,505 520,504 518,504 515,503 513,503 511,502 508,502 505,502 503,502 500,502 498,502 495,503 493,504 490,504 488,505 485,505 483,506 Z M 419,940 L 415,937 410,934 406,931 402,928 398,925 393,922 389,919 385,915 382,911 378,907 375,903 372,899 369,895 366,890 362,886 359,882 357,878 355,873 353,869 351,864 348,855 344,845 342,836 340,826 338,816 338,806 338,801 339,583 340,578 340,573 341,568 340,562 341,557 342,552 344,547 345,542 347,537 348,532 349,527 351,522 354,517 356,511 359,507 361,502 364,497 366,493 369,489 373,485 376,480 380,477 383,473 387,469 391,464 395,461 398,457 402,454 406,451 411,448 415,445 420,443 425,439 429,437 434,434 439,432 444,430 449,429 454,427 459,425 464,423 468,422 474,421 479,420 484,420 489,419 495,419 500,418 505,418 511,418 516,419 521,419 526,420 532,420 537,421 543,423 548,424 553,426 558,427 563,429 568,431 572,433 577,435 582,438 586,441 591,444 595,447 599,450 603,452 607,456 612,459 616,463 586,493 616,463 619,467 623,471 626,475 629,479 632,483 635,488 638,492 642,496 644,500 646,505 648,509 650,514 653,523 657,533 659,542 661,552 661,562 663,572 663,577 621,577 663,577 662,794 661,800 661,805 660,810 660,815 660,821 658,826 657,831 656,836 654,841 652,846 651,851 649,856 647,861 645,865 642,871 639,876 637,880 635,885 631,889 628,893 625,897 621,901 618,905 614,909 610,912 606,917 603,920 599,924 594,927 590,930 586,933 581,935 576,938 572,941 567,943 562,946 557,947 552,949 547,951 542,952 537,955 531,956 527,957 522,957 517,958 511,958 506,959 501,960 496,960 490,959 485,959 480,958 474,958 469,957 463,957 458,955 453,954 448,952 443,950 438,948 433,946 429,945 424,943 419,940 Z"/>
         </g>
        </g>
       </g>
       <g class="com.sun.star.drawing.PolyPolygonShape">
        <g id="id4">
         <rect class="BoundingBox" stroke="none" fill="none" x="294" y="692" width="411" height="273"/>
         <path fill="rgb(255,255,255)" stroke="none" d="M 294,964 L 294,692 704,692 704,964 294,964 Z"/>
        </g>
       </g>
       <g class="com.sun.star.drawing.ClosedBezierShape">
        <g id="id5">
         <rect class="BoundingBox" stroke="none" fill="none" x="27" y="137" width="932" height="751"/>
         <path fill="rgb(255,255,255)" stroke="none" d="M 177,208 C 177,200 175,192 170,184 166,177 160,171 153,167 146,163 138,160 129,160 121,160 113,163 106,167 99,171 93,177 88,184 84,192 82,200 82,208 82,216 84,224 88,231 93,239 99,245 106,249 113,253 121,255 129,255 138,255 146,253 153,249 160,245 166,239 170,231 175,224 177,216 177,208 Z M 296,209 C 296,200 293,192 289,184 285,177 279,171 272,167 265,163 257,160 248,160 240,160 231,163 224,167 217,171 211,177 207,184 202,192 201,200 201,209 201,216 202,224 207,232 211,239 217,245 224,249 231,253 240,255 248,255 257,255 265,253 272,249 279,245 285,239 289,232 293,224 296,216 296,209 Z M 414,209 C 414,200 412,192 407,185 403,177 397,171 390,167 383,163 375,160 367,160 359,160 350,163 343,167 335,171 329,177 325,185 321,192 319,200 319,209 319,216 321,225 325,232 329,239 335,245 343,249 350,254 359,255 367,255 375,255 383,254 390,249 397,245 403,239 407,232 412,225 414,216 414,209 Z M 788,799 L 871,799 871,295 121,295 121,799 216,799 216,887 74,887 C 66,887 58,884 50,880 44,876 37,870 33,863 29,856 27,847 27,839 L 27,184 C 27,176 29,168 33,160 37,154 44,147 50,143 58,139 66,137 74,137 L 911,137 C 919,137 927,139 934,143 942,147 948,154 951,160 955,168 958,176 958,184 L 958,839 C 958,847 955,856 951,863 948,870 942,876 934,880 927,884 919,887 911,887 L 788,887 788,799 Z"/>
        </g>
       </g>
      </g>
     </g>
    </g>
   </g>
  </g>
 </g>
</svg>