<?xml version="1.0" encoding="UTF-8"?>
<!DOCTYPE svg PUBLIC "-//W3C//DTD SVG 1.1//EN" "http://www.w3.org/Graphics/SVG/1.1/DTD/svg11.dtd">
<svg version="1.2" width="10mm" height="10mm" viewBox="0 0 1000 1000" preserveAspectRatio="xMidYMid" fill-rule="evenodd" stroke-width="28.222" stroke-linejoin="round" xmlns="http://www.w3.org/2000/svg" xmlns:ooo="http://xml.openoffice.org/svg/export" xmlns:xlink="http://www.w3.org/1999/xlink" xmlns:presentation="http://sun.com/xmlns/staroffice/presentation" xmlns:smil="http://www.w3.org/2001/SMIL20/" xmlns:anim="urn:oasis:names:tc:opendocument:xmlns:animation:1.0" xml:space="preserve">
 <defs class="ClipPathGroup">
  <clipPath id="presentation_clip_path" clipPathUnits="userSpaceOnUse">
   <rect x="0" y="0" width="1000" height="1000"/>
  </clipPath>
  <clipPath id="presentation_clip_path_shrink" clipPathUnits="userSpaceOnUse">
   <rect x="1" y="1" width="998" height="998"/>
  </clipPath>
 </defs>
 <defs class="TextShapeIndex">
  <g ooo:slide="id1" ooo:id-list="id3 id4 id5 id6 id7 id8 id9 id10 id11 id12 id13 id14 id15 id16"/>
 </defs>
 <defs class="EmbeddedBulletChars">
  <g id="bullet-char-template-57356" transform="scale(0.00048828125,-0.00048828125)">
   <path d="M 580,1141 L 1163,571 580,0 -4,571 580,1141 Z"/>
  </g>
  <g id="bullet-char-template-57354" transform="scale(0.00048828125,-0.00048828125)">
   <path d="M 8,1128 L 1137,1128 1137,0 8,0 8,1128 Z"/>
  </g>
  <g id="bullet-char-template-10146" transform="scale(0.00048828125,-0.00048828125)">
   <path d="M 174,0 L 602,739 174,1481 1456,739 174,0 Z M 1358,739 L 309,1346 659,739 1358,739 Z"/>
  </g>
  <g id="bullet-char-template-10132" transform="scale(0.00048828125,-0.00048828125)">
   <path d="M 2015,739 L 1276,0 717,0 1260,543 174,543 174,936 1260,936 717,1481 1274,1481 2015,739 Z"/>
  </g>
  <g id="bullet-char-template-10007" transform="scale(0.00048828125,-0.00048828125)">
   <path d="M 0,-2 C -7,14 -16,27 -25,37 L 356,567 C 262,823 215,952 215,954 215,979 228,992 255,992 264,992 276,990 289,987 310,991 331,999 354,1012 L 381,999 492,748 772,1049 836,1024 860,1049 C 881,1039 901,1025 922,1006 886,937 835,863 770,784 769,783 710,716 594,584 L 774,223 C 774,196 753,168 711,139 L 727,119 C 717,90 699,76 672,76 641,76 570,178 457,381 L 164,-76 C 142,-110 111,-127 72,-127 30,-127 9,-110 8,-76 1,-67 -2,-52 -2,-32 -2,-23 -1,-13 0,-2 Z"/>
  </g>
  <g id="bullet-char-template-10004" transform="scale(0.00048828125,-0.00048828125)">
   <path d="M 285,-33 C 182,-33 111,30 74,156 52,228 41,333 41,471 41,549 55,616 82,672 116,743 169,778 240,778 293,778 328,747 346,684 L 369,508 C 377,444 397,411 428,410 L 1163,1116 C 1174,1127 1196,1133 1229,1133 1271,1133 1292,1118 1292,1087 L 1292,965 C 1292,929 1282,901 1262,881 L 442,47 C 390,-6 338,-33 285,-33 Z"/>
  </g>
  <g id="bullet-char-template-9679" transform="scale(0.00048828125,-0.00048828125)">
   <path d="M 813,0 C 632,0 489,54 383,161 276,268 223,411 223,592 223,773 276,916 383,1023 489,1130 632,1184 813,1184 992,1184 1136,1130 1245,1023 1353,916 1407,772 1407,592 1407,412 1353,268 1245,161 1136,54 992,0 813,0 Z"/>
  </g>
  <g id="bullet-char-template-8226" transform="scale(0.00048828125,-0.00048828125)">
   <path d="M 346,457 C 273,457 209,483 155,535 101,586 74,649 74,723 74,796 101,859 155,911 209,963 273,989 346,989 419,989 480,963 531,910 582,859 608,796 608,723 608,648 583,586 532,535 482,483 420,457 346,457 Z"/>
  </g>
  <g id="bullet-char-template-8211" transform="scale(0.00048828125,-0.00048828125)">
   <path d="M -4,459 L 1135,459 1135,606 -4,606 -4,459 Z"/>
  </g>
  <g id="bullet-char-template-61548" transform="scale(0.00048828125,-0.00048828125)">
   <path d="M 173,740 C 173,903 231,1043 346,1159 462,1274 601,1332 765,1332 928,1332 1067,1274 1183,1159 1299,1043 1357,903 1357,740 1357,577 1299,437 1183,322 1067,206 928,148 765,148 601,148 462,206 346,322 231,437 173,577 173,740 Z"/>
  </g>
 </defs>
 <g>
  <g id="id2" class="Master_Slide">
   <g id="bg-id2" class="Background"/>
   <g id="bo-id2" class="BackgroundObjects"/>
  </g>
 </g>
 <g class="SlideGroup">
  <g>
   <g id="container-id1">
    <g id="id1" class="Slide" clip-path="url(#presentation_clip_path)">
     <g class="Page">
      <g class="Group">
       <g class="com.sun.star.drawing.CustomShape">
        <g id="id3">
         <rect class="BoundingBox" stroke="none" fill="none" x="180" y="48" width="62" height="137"/>
         <path fill="rgb(255,255,255)" stroke="none" d="M 210,49 L 211,49 C 205,49 200,50 196,53 191,56 188,59 185,64 182,68 181,73 181,79 L 181,153 181,154 C 181,159 182,164 185,168 188,173 191,176 196,179 200,182 205,183 211,183 L 210,183 211,183 C 216,183 221,182 225,179 230,176 233,173 236,168 239,164 240,159 240,154 L 240,78 240,79 240,78 C 240,73 239,68 236,64 233,59 230,56 225,53 221,50 216,49 211,49 L 210,49 Z"/>
         <path fill="none" stroke="rgb(255,255,255)" d="M 210,49 L 211,49 C 205,49 200,50 196,53 191,56 188,59 185,64 182,68 181,73 181,79 L 181,153 181,154 C 181,159 182,164 185,168 188,173 191,176 196,179 200,182 205,183 211,183 L 210,183 211,183 C 216,183 221,182 225,179 230,176 233,173 236,168 239,164 240,159 240,154 L 240,78 240,79 240,78 C 240,73 239,68 236,64 233,59 230,56 225,53 221,50 216,49 211,49 L 210,49 Z"/>
        </g>
       </g>
       <g class="com.sun.star.drawing.CustomShape">
        <g id="id4">
         <rect class="BoundingBox" stroke="none" fill="none" x="587" y="52" width="63" height="137"/>
         <path fill="rgb(255,255,255)" stroke="none" d="M 618,53 L 618,53 C 613,53 608,54 603,57 598,60 595,63 592,68 589,73 588,78 588,83 L 588,156 588,157 C 588,162 589,167 592,172 595,177 598,180 603,183 608,186 613,187 618,187 L 618,186 618,187 C 623,187 628,186 633,183 638,180 641,177 644,172 647,167 648,162 648,157 L 648,82 648,83 648,83 C 648,78 647,73 644,68 641,63 638,60 633,57 628,54 623,53 618,53 L 618,53 Z"/>
         <path fill="none" stroke="rgb(255,255,255)" d="M 618,53 L 618,53 C 613,53 608,54 603,57 598,60 595,63 592,68 589,73 588,78 588,83 L 588,156 588,157 C 588,162 589,167 592,172 595,177 598,180 603,183 608,186 613,187 618,187 L 618,186 618,187 C 623,187 628,186 633,183 638,180 641,177 644,172 647,167 648,162 648,157 L 648,82 648,83 648,83 C 648,78 647,73 644,68 641,63 638,60 633,57 628,54 623,53 618,53 Z"/>
        </g>
       </g>
       <g class="com.sun.star.drawing.CustomShape">
        <g id="id5">
         <rect class="BoundingBox" stroke="none" fill="none" x="377" y="51" width="62" height="136"/>
         <path fill="rgb(255,255,255)" stroke="none" d="M 407,52 L 408,52 C 402,52 397,53 393,56 388,59 385,62 382,67 379,71 378,76 378,82 L 378,155 378,156 C 378,161 379,166 382,170 385,175 388,178 393,181 397,184 402,185 408,185 L 407,185 408,185 C 413,185 418,184 422,181 427,178 430,175 433,170 436,166 437,161 437,156 L 437,81 437,82 437,82 C 437,76 436,71 433,67 430,62 427,59 422,56 418,53 413,52 408,52 L 407,52 Z"/>
         <path fill="none" stroke="rgb(255,255,255)" d="M 407,52 L 408,52 C 402,52 397,53 393,56 388,59 385,62 382,67 379,71 378,76 378,82 L 378,155 378,156 C 378,161 379,166 382,170 385,175 388,178 393,181 397,184 402,185 408,185 L 407,185 408,185 C 413,185 418,184 422,181 427,178 430,175 433,170 436,166 437,161 437,156 L 437,81 437,82 437,82 C 437,76 436,71 433,67 430,62 427,59 422,56 418,53 413,52 408,52 L 407,52 Z"/>
        </g>
       </g>
       <g class="com.sun.star.drawing.CustomShape">
        <g id="id6">
         <rect class="BoundingBox" stroke="none" fill="none" x="169" y="291" width="104" height="95"/>
         <path fill="rgb(255,255,255)" stroke="none" d="M 197,292 L 198,292 C 193,292 188,293 184,296 180,298 176,302 174,306 171,310 170,315 170,320 L 170,356 170,356 C 170,361 171,366 174,370 176,374 180,378 184,380 188,383 193,384 198,384 L 243,384 243,384 C 248,384 253,383 257,380 261,378 265,374 267,370 270,366 271,361 271,356 L 271,319 271,320 271,320 C 271,315 270,310 267,306 265,302 261,298 257,296 253,293 248,292 243,292 L 197,292 Z"/>
         <path fill="none" stroke="rgb(255,255,255)" d="M 197,292 L 198,292 C 193,292 188,293 184,296 180,298 176,302 174,306 171,310 170,315 170,320 L 170,356 170,356 C 170,361 171,366 174,370 176,374 180,378 184,380 188,383 193,384 198,384 L 243,384 243,384 C 248,384 253,383 257,380 261,378 265,374 267,370 270,366 271,361 271,356 L 271,319 271,320 271,320 C 271,315 270,310 267,306 265,302 261,298 257,296 253,293 248,292 243,292 L 197,292 Z"/>
        </g>
       </g>
       <g class="com.sun.star.drawing.CustomShape">
        <g id="id7">
         <rect class="BoundingBox" stroke="none" fill="none" x="352" y="291" width="104" height="95"/>
         <path fill="rgb(255,255,255)" stroke="none" d="M 380,292 L 381,292 C 376,292 371,293 367,296 363,298 359,302 357,306 354,310 353,315 353,320 L 353,356 353,356 C 353,361 354,366 357,370 359,374 363,378 367,380 371,383 376,384 381,384 L 426,384 426,384 C 431,384 436,383 440,380 444,378 448,374 450,370 453,366 454,361 454,356 L 454,319 454,320 454,320 C 454,315 453,310 450,306 448,302 444,298 440,296 436,293 431,292 426,292 L 380,292 Z"/>
         <path fill="none" stroke="rgb(255,255,255)" d="M 380,292 L 381,292 C 376,292 371,293 367,296 363,298 359,302 357,306 354,310 353,315 353,320 L 353,356 353,356 C 353,361 354,366 357,370 359,374 363,378 367,380 371,383 376,384 381,384 L 426,384 426,384 C 431,384 436,383 440,380 444,378 448,374 450,370 453,366 454,361 454,356 L 454,319 454,320 454,320 C 454,315 453,310 450,306 448,302 444,298 440,296 436,293 431,292 426,292 L 380,292 Z"/>
        </g>
       </g>
       <g class="com.sun.star.drawing.CustomShape">
        <g id="id8">
         <rect class="BoundingBox" stroke="none" fill="none" x="548" y="291" width="104" height="95"/>
         <path fill="rgb(255,255,255)" stroke="none" d="M 576,292 L 577,292 C 572,292 567,293 563,296 559,298 555,302 553,306 550,310 549,315 549,320 L 549,356 549,356 C 549,361 550,366 553,370 555,374 559,378 563,380 567,383 572,384 577,384 L 622,384 622,384 C 627,384 632,383 636,380 640,378 644,374 646,370 649,366 650,361 650,356 L 650,319 650,320 650,320 C 650,315 649,310 646,306 644,302 640,298 636,296 632,293 627,292 622,292 L 576,292 Z"/>
         <path fill="none" stroke="rgb(255,255,255)" d="M 576,292 L 577,292 C 572,292 567,293 563,296 559,298 555,302 553,306 550,310 549,315 549,320 L 549,356 549,356 C 549,361 550,366 553,370 555,374 559,378 563,380 567,383 572,384 577,384 L 622,384 622,384 C 627,384 632,383 636,380 640,378 644,374 646,370 649,366 650,361 650,356 L 650,319 650,320 650,320 C 650,315 649,310 646,306 644,302 640,298 636,296 632,293 627,292 622,292 L 576,292 Z"/>
        </g>
       </g>
       <g class="com.sun.star.drawing.CustomShape">
        <g id="id9">
         <rect class="BoundingBox" stroke="none" fill="none" x="169" y="443" width="104" height="95"/>
         <path fill="rgb(255,255,255)" stroke="none" d="M 197,444 L 198,444 C 193,444 188,445 184,448 180,450 176,454 174,458 171,462 170,467 170,472 L 170,508 170,508 C 170,513 171,518 174,522 176,526 180,530 184,532 188,535 193,536 198,536 L 243,536 243,536 C 248,536 253,535 257,532 261,530 265,526 267,522 270,518 271,513 271,508 L 271,471 271,472 271,472 C 271,467 270,462 267,458 265,454 261,450 257,448 253,445 248,444 243,444 L 197,444 Z"/>
         <path fill="none" stroke="rgb(255,255,255)" d="M 197,444 L 198,444 C 193,444 188,445 184,448 180,450 176,454 174,458 171,462 170,467 170,472 L 170,508 170,508 C 170,513 171,518 174,522 176,526 180,530 184,532 188,535 193,536 198,536 L 243,536 243,536 C 248,536 253,535 257,532 261,530 265,526 267,522 270,518 271,513 271,508 L 271,471 271,472 271,472 C 271,467 270,462 267,458 265,454 261,450 257,448 253,445 248,444 243,444 L 197,444 Z"/>
        </g>
       </g>
       <g class="com.sun.star.drawing.CustomShape">
        <g id="id10">
         <rect class="BoundingBox" stroke="none" fill="none" x="352" y="443" width="104" height="95"/>
         <path fill="rgb(255,255,255)" stroke="none" d="M 380,444 L 381,444 C 376,444 371,445 367,448 363,450 359,454 357,458 354,462 353,467 353,472 L 353,508 353,508 C 353,513 354,518 357,522 359,526 363,530 367,532 371,535 376,536 381,536 L 426,536 426,536 C 431,536 436,535 440,532 444,530 448,526 450,522 453,518 454,513 454,508 L 454,471 454,472 454,472 C 454,467 453,462 450,458 448,454 444,450 440,448 436,445 431,444 426,444 L 380,444 Z"/>
         <path fill="none" stroke="rgb(255,255,255)" d="M 380,444 L 381,444 C 376,444 371,445 367,448 363,450 359,454 357,458 354,462 353,467 353,472 L 353,508 353,508 C 353,513 354,518 357,522 359,526 363,530 367,532 371,535 376,536 381,536 L 426,536 426,536 C 431,536 436,535 440,532 444,530 448,526 450,522 453,518 454,513 454,508 L 454,471 454,472 454,472 C 454,467 453,462 450,458 448,454 444,450 440,448 436,445 431,444 426,444 L 380,444 Z"/>
        </g>
       </g>
       <g class="com.sun.star.drawing.CustomShape">
        <g id="id11">
         <rect class="BoundingBox" stroke="none" fill="none" x="169" y="595" width="104" height="96"/>
         <path fill="rgb(255,255,255)" stroke="none" d="M 197,596 L 198,596 C 193,596 188,597 184,600 180,602 176,606 174,610 171,614 170,619 170,624 L 170,661 170,661 C 170,666 171,671 174,675 176,679 180,683 184,685 188,688 193,689 198,689 L 243,689 243,689 C 248,689 253,688 257,685 261,683 265,679 267,675 270,671 271,666 271,661 L 271,623 271,624 271,624 C 271,619 270,614 267,610 265,606 261,602 257,600 253,597 248,596 243,596 L 197,596 Z"/>
         <path fill="none" stroke="rgb(255,255,255)" d="M 197,596 L 198,596 C 193,596 188,597 184,600 180,602 176,606 174,610 171,614 170,619 170,624 L 170,661 170,661 C 170,666 171,671 174,675 176,679 180,683 184,685 188,688 193,689 198,689 L 243,689 243,689 C 248,689 253,688 257,685 261,683 265,679 267,675 270,671 271,666 271,661 L 271,623 271,624 271,624 C 271,619 270,614 267,610 265,606 261,602 257,600 253,597 248,596 243,596 L 197,596 Z"/>
        </g>
       </g>
       <g class="com.sun.star.drawing.CustomShape">
        <g id="id12">
         <rect class="BoundingBox" stroke="none" fill="none" x="352" y="595" width="104" height="96"/>
         <path fill="rgb(255,255,255)" stroke="none" d="M 380,596 L 381,596 C 376,596 371,597 367,600 363,602 359,606 357,610 354,614 353,619 353,624 L 353,661 353,661 C 353,666 354,671 357,675 359,679 363,683 367,685 371,688 376,689 381,689 L 426,689 426,689 C 431,689 436,688 440,685 444,683 448,679 450,675 453,671 454,666 454,661 L 454,623 454,624 454,624 C 454,619 453,614 450,610 448,606 444,602 440,600 436,597 431,596 426,596 L 380,596 Z"/>
         <path fill="none" stroke="rgb(255,255,255)" d="M 380,596 L 381,596 C 376,596 371,597 367,600 363,602 359,606 357,610 354,614 353,619 353,624 L 353,661 353,661 C 353,666 354,671 357,675 359,679 363,683 367,685 371,688 376,689 381,689 L 426,689 426,689 C 431,689 436,688 440,685 444,683 448,679 450,675 453,671 454,666 454,661 L 454,623 454,624 454,624 C 454,619 453,614 450,610 448,606 444,602 440,600 436,597 431,596 426,596 L 380,596 Z"/>
        </g>
       </g>
       <g class="com.sun.star.drawing.ClosedBezierShape">
        <g id="id13">
         <rect class="BoundingBox" stroke="none" fill="none" x="480" y="451" width="485" height="498"/>
         <path fill="rgb(255,255,255)" stroke="none" d="M 895,855 L 913,870 C 901,883 888,895 874,905 860,915 846,923 830,929 800,942 768,948 736,948 704,948 673,942 643,931 613,921 586,906 562,886 537,866 517,842 503,815 496,801 491,787 486,771 483,756 481,739 481,723 481,708 482,692 486,676 489,643 498,613 513,585 528,557 548,534 571,514 595,494 621,478 651,468 680,457 711,452 742,452 762,452 782,454 802,458 821,462 839,469 857,477 L 881,453 963,612 802,534 823,512 C 813,508 802,505 792,503 775,499 759,497 742,497 716,497 690,502 666,511 642,519 620,532 600,548 581,564 565,584 553,606 541,629 533,654 531,682 531,683 531,684 530,685 528,698 526,711 526,723 526,736 528,748 530,760 534,772 538,783 544,794 555,816 571,835 591,851 610,867 633,880 658,889 683,897 709,902 736,902 762,902 788,897 813,887 825,882 837,876 848,868 858,860 869,851 879,840 L 895,855 Z"/>
        </g>
       </g>
       <g class="com.sun.star.drawing.CustomShape">
        <g id="id14">
         <rect class="BoundingBox" stroke="none" fill="none" x="697" y="542" width="50" height="201"/>
         <path fill="rgb(255,255,255)" stroke="none" d="M 712,543 L 712,543 C 710,543 707,544 705,545 703,546 701,548 700,550 699,552 698,555 698,557 L 698,726 698,727 C 698,729 699,732 700,734 701,736 703,738 705,739 707,740 710,741 712,741 L 730,741 731,741 C 733,741 736,740 738,739 740,738 742,736 743,734 744,732 745,729 745,727 L 745,557 745,557 745,557 C 745,555 744,552 743,550 742,548 740,546 738,545 736,544 733,543 731,543 L 712,543 Z"/>
         <path fill="none" stroke="rgb(255,255,255)" d="M 712,543 L 712,543 C 710,543 707,544 705,545 703,546 701,548 700,550 699,552 698,555 698,557 L 698,726 698,727 C 698,729 699,732 700,734 701,736 703,738 705,739 707,740 710,741 712,741 L 730,741 731,741 C 733,741 736,740 738,739 740,738 742,736 743,734 744,732 745,729 745,727 L 745,557 745,557 745,557 C 745,555 744,552 743,550 742,548 740,546 738,545 736,544 733,543 731,543 L 712,543 Z"/>
        </g>
       </g>
       <g class="com.sun.star.drawing.CustomShape">
        <g id="id15">
         <rect class="BoundingBox" stroke="none" fill="none" x="696" y="694" width="201" height="50"/>
         <path fill="rgb(255,255,255)" stroke="none" d="M 895,709 L 895,709 C 895,707 894,704 893,702 892,700 890,698 888,697 886,696 883,695 881,695 L 712,695 711,695 C 709,695 706,696 704,697 702,698 700,700 699,702 698,704 697,707 697,709 L 697,727 697,728 C 697,730 698,733 699,735 700,737 702,739 704,740 706,741 709,742 711,742 L 881,742 881,742 881,742 C 883,742 886,741 888,740 890,739 892,737 893,735 894,733 895,730 895,728 L 895,709 Z"/>
         <path fill="none" stroke="rgb(255,255,255)" d="M 895,709 L 895,709 C 895,707 894,704 893,702 892,700 890,698 888,697 886,696 883,695 881,695 L 712,695 711,695 C 709,695 706,696 704,697 702,698 700,700 699,702 698,704 697,707 697,709 L 697,727 697,728 C 697,730 698,733 699,735 700,737 702,739 704,740 706,741 709,742 711,742 L 881,742 881,742 881,742 C 883,742 886,741 888,740 890,739 892,737 893,735 894,733 895,730 895,728 L 895,709 Z"/>
        </g>
       </g>
       <g class="com.sun.star.drawing.ClosedBezierShape">
        <g id="id16">
         <rect class="BoundingBox" stroke="none" fill="none" x="39" y="115" width="733" height="667"/>
         <path fill="rgb(255,255,255)" stroke="none" d="M 457,780 L 86,780 C 63,780 40,757 40,734 L 40,162 C 40,139 63,116 86,116 L 164,116 164,165 C 164,188 187,211 210,211 233,211 256,188 256,165 L 256,116 361,116 361,165 C 361,188 384,211 407,211 430,211 453,188 453,165 L 453,116 572,116 572,165 C 572,188 595,211 619,211 642,211 665,188 665,165 L 665,116 724,116 C 747,116 770,139 770,162 L 770,416 723,416 723,246 91,246 91,732 457,732 457,780 Z"/>
         <path fill="none" stroke="rgb(255,255,255)" d="M 457,780 L 86,780 C 63,780 40,757 40,734 L 40,162 C 40,139 63,116 86,116 L 164,116 164,165 C 164,188 187,211 210,211 233,211 256,188 256,165 L 256,116 361,116 361,165 C 361,188 384,211 407,211 430,211 453,188 453,165 L 453,116 572,116 572,165 C 572,188 595,211 619,211 642,211 665,188 665,165 L 665,116 724,116 C 747,116 770,139 770,162 L 770,416 723,416 723,246 91,246 91,732 457,732 457,780 Z"/>
        </g>
       </g>
      </g>
     </g>
    </g>
   </g>
  </g>
 </g>
</svg>