<?xml version="1.0" encoding="UTF-8"?>
<!DOCTYPE svg PUBLIC "-//W3C//DTD SVG 1.1//EN" "http://www.w3.org/Graphics/SVG/1.1/DTD/svg11.dtd">
<svg version="1.2" width="10mm" height="10mm" viewBox="0 0 1000 1000" preserveAspectRatio="xMidYMid" fill-rule="evenodd" stroke-width="28.222" stroke-linejoin="round" xmlns="http://www.w3.org/2000/svg" xmlns:ooo="http://xml.openoffice.org/svg/export" xmlns:xlink="http://www.w3.org/1999/xlink" xmlns:presentation="http://sun.com/xmlns/staroffice/presentation" xmlns:smil="http://www.w3.org/2001/SMIL20/" xmlns:anim="urn:oasis:names:tc:opendocument:xmlns:animation:1.0" xml:space="preserve">
 <defs class="ClipPathGroup">
  <clipPath id="presentation_clip_path" clipPathUnits="userSpaceOnUse">
   <rect x="0" y="0" width="1000" height="1000"/>
  </clipPath>
  <clipPath id="presentation_clip_path_shrink" clipPathUnits="userSpaceOnUse">
   <rect x="1" y="1" width="998" height="998"/>
  </clipPath>
 </defs>
 <defs class="TextShapeIndex">
  <g ooo:slide="id1" ooo:id-list="id3 id4 id5 id6 id7 id8 id9 id10"/>
 </defs>
 <defs class="EmbeddedBulletChars">
  <g id="bullet-char-template-57356" transform="scale(0.00048828125,-0.00048828125)">
   <path d="M 580,1141 L 1163,571 580,0 -4,571 580,1141 Z"/>
  </g>
  <g id="bullet-char-template-57354" transform="scale(0.00048828125,-0.00048828125)">
   <path d="M 8,1128 L 1137,1128 1137,0 8,0 8,1128 Z"/>
  </g>
  <g id="bullet-char-template-10146" transform="scale(0.00048828125,-0.00048828125)">
   <path d="M 174,0 L 602,739 174,1481 1456,739 174,0 Z M 1358,739 L 309,1346 659,739 1358,739 Z"/>
  </g>
  <g id="bullet-char-template-10132" transform="scale(0.00048828125,-0.00048828125)">
   <path d="M 2015,739 L 1276,0 717,0 1260,543 174,543 174,936 1260,936 717,1481 1274,1481 2015,739 Z"/>
  </g>
  <g id="bullet-char-template-10007" transform="scale(0.00048828125,-0.00048828125)">
   <path d="M 0,-2 C -7,14 -16,27 -25,37 L 356,567 C 262,823 215,952 215,954 215,979 228,992 255,992 264,992 276,990 289,987 310,991 331,999 354,1012 L 381,999 492,748 772,1049 836,1024 860,1049 C 881,1039 901,1025 922,1006 886,937 835,863 770,784 769,783 710,716 594,584 L 774,223 C 774,196 753,168 711,139 L 727,119 C 717,90 699,76 672,76 641,76 570,178 457,381 L 164,-76 C 142,-110 111,-127 72,-127 30,-127 9,-110 8,-76 1,-67 -2,-52 -2,-32 -2,-23 -1,-13 0,-2 Z"/>
  </g>
  <g id="bullet-char-template-10004" transform="scale(0.00048828125,-0.00048828125)">
   <path d="M 285,-33 C 182,-33 111,30 74,156 52,228 41,333 41,471 41,549 55,616 82,672 116,743 169,778 240,778 293,778 328,747 346,684 L 369,508 C 377,444 397,411 428,410 L 1163,1116 C 1174,1127 1196,1133 1229,1133 1271,1133 1292,1118 1292,1087 L 1292,965 C 1292,929 1282,901 1262,881 L 442,47 C 390,-6 338,-33 285,-33 Z"/>
  </g>
  <g id="bullet-char-template-9679" transform="scale(0.00048828125,-0.00048828125)">
   <path d="M 813,0 C 632,0 489,54 383,161 276,268 223,411 223,592 223,773 276,916 383,1023 489,1130 632,1184 813,1184 992,1184 1136,1130 1245,1023 1353,916 1407,772 1407,592 1407,412 1353,268 1245,161 1136,54 992,0 813,0 Z"/>
  </g>
  <g id="bullet-char-template-8226" transform="scale(0.00048828125,-0.00048828125)">
   <path d="M 346,457 C 273,457 209,483 155,535 101,586 74,649 74,723 74,796 101,859 155,911 209,963 273,989 346,989 419,989 480,963 531,910 582,859 608,796 608,723 608,648 583,586 532,535 482,483 420,457 346,457 Z"/>
  </g>
  <g id="bullet-char-template-8211" transform="scale(0.00048828125,-0.00048828125)">
   <path d="M -4,459 L 1135,459 1135,606 -4,606 -4,459 Z"/>
  </g>
  <g id="bullet-char-template-61548" transform="scale(0.00048828125,-0.00048828125)">
   <path d="M 173,740 C 173,903 231,1043 346,1159 462,1274 601,1332 765,1332 928,1332 1067,1274 1183,1159 1299,1043 1357,903 1357,740 1357,577 1299,437 1183,322 1067,206 928,148 765,148 601,148 462,206 346,322 231,437 173,577 173,740 Z"/>
  </g>
 </defs>
 <g>
  <g id="id2" class="Master_Slide">
   <g id="bg-id2" class="Background"/>
   <g id="bo-id2" class="BackgroundObjects"/>
  </g>
 </g>
 <g class="SlideGroup">
  <g>
   <g id="container-id1">
    <g id="id1" class="Slide" clip-path="url(#presentation_clip_path)">
     <g class="Page">
      <g class="Group">
       <g class="com.sun.star.drawing.ClosedBezierShape">
        <g id="id3">
         <rect class="BoundingBox" stroke="none" fill="none" x="119" y="54" width="782" height="897"/>
         <path fill="rgb(255,255,255)" stroke="none" d="M 895,278 C 898,283 899,289 899,294 L 899,709 C 899,715 898,721 895,726 892,730 889,734 883,737 L 526,945 C 521,947 515,949 510,949 504,949 499,947 494,945 L 136,737 C 131,734 127,730 124,726 121,721 120,715 120,709 L 120,294 C 120,289 121,283 124,278 127,274 131,269 136,267 L 494,59 C 499,57 504,55 510,55 515,55 521,57 526,59 L 883,267 C 889,269 892,274 895,278 Z M 184,691 L 479,861 479,520 184,354 184,691 Z M 835,691 L 835,353 544,517 544,860 835,691 Z M 510,124 L 214,296 508,462 805,296 510,124 Z"/>
         <path fill="none" stroke="rgb(255,255,255)" d="M 895,278 C 898,283 899,289 899,294 L 899,709 C 899,715 898,721 895,726 892,730 889,734 883,737 L 526,945 C 521,947 515,949 510,949 504,949 499,947 494,945 L 136,737 C 131,734 127,730 124,726 121,721 120,715 120,709 L 120,294 C 120,289 121,283 124,278 127,274 131,269 136,267 L 494,59 C 499,57 504,55 510,55 515,55 521,57 526,59 L 883,267 C 889,269 892,274 895,278 Z"/>
         <path fill="none" stroke="rgb(255,255,255)" d="M 184,691 L 479,861 479,520 184,354 184,691 Z"/>
         <path fill="none" stroke="rgb(255,255,255)" d="M 835,691 L 835,353 544,517 544,860 835,691 Z"/>
         <path fill="none" stroke="rgb(255,255,255)" d="M 510,124 L 214,296 508,462 805,296 510,124 Z"/>
        </g>
       </g>
       <g class="com.sun.star.drawing.ClosedBezierShape">
        <g id="id4">
         <rect class="BoundingBox" stroke="none" fill="none" x="459" y="324" width="105" height="83"/>
         <path fill="rgb(255,255,255)" stroke="none" d="M 509,325 C 510,325 510,325 510,325 511,325 511,325 511,325 519,326 526,327 532,329 539,332 546,336 552,342 555,346 558,350 559,354 561,357 562,361 562,364 562,367 561,370 560,373 560,376 558,379 557,383 557,383 557,383 557,383 555,386 552,390 549,392 546,396 542,397 538,399 534,401 530,403 526,403 521,405 516,405 511,405 511,405 511,405 511,405 510,405 510,405 510,405 505,405 500,405 495,403 491,403 487,401 483,399 479,397 476,396 472,392 469,390 467,386 464,383 462,379 462,376 461,373 460,370 460,367 460,364 460,361 460,357 462,354 464,350 466,346 469,342 476,336 482,332 489,329 495,327 502,326 509,325 Z"/>
         <path fill="none" stroke="rgb(255,255,255)" d="M 509,325 L 510,325 511,325 C 519,326 526,327 532,329 539,332 546,336 552,342 555,346 558,350 559,354 561,357 562,361 562,364 562,367 561,370 560,373 560,376 558,379 557,383 557,383 557,383 557,383 555,386 552,390 549,392 546,396 542,397 538,399 534,401 530,403 526,403 521,405 516,405 511,405 L 511,405 C 510,405 510,405 510,405 505,405 500,405 495,403 491,403 487,401 483,399 479,397 476,396 472,392 469,390 467,386 464,383 462,379 462,376 461,373 460,370 460,367 460,364 460,361 460,357 462,354 464,350 466,346 469,342 476,336 482,332 489,329 495,327 502,326 509,325 Z"/>
        </g>
       </g>
       <g class="com.sun.star.drawing.ClosedBezierShape">
        <g id="id5">
         <rect class="BoundingBox" stroke="none" fill="none" x="459" y="196" width="105" height="82"/>
         <path fill="rgb(255,255,255)" stroke="none" d="M 509,197 C 510,197 510,197 510,197 511,197 511,197 511,197 519,198 526,199 532,201 539,204 546,208 552,214 555,218 558,222 559,225 561,229 562,232 562,236 562,239 561,242 560,245 560,248 558,251 557,255 557,255 557,255 557,255 555,258 552,262 549,264 546,268 542,269 538,271 534,273 530,275 526,275 521,276 516,276 511,276 511,276 511,276 511,276 510,276 510,276 510,276 505,276 500,276 495,275 491,275 487,273 483,271 479,269 476,268 472,264 469,262 467,258 464,255 462,251 462,248 461,245 460,242 460,239 460,236 460,232 460,229 462,225 464,222 466,218 469,214 476,208 482,204 489,201 495,199 502,198 509,197 Z"/>
         <path fill="none" stroke="rgb(255,255,255)" d="M 509,197 L 510,197 511,197 C 519,198 526,199 532,201 539,204 546,208 552,214 555,218 558,222 559,225 561,229 562,232 562,236 562,239 561,242 560,245 560,248 558,251 557,255 557,255 557,255 557,255 555,258 552,262 549,264 546,268 542,269 538,271 534,273 530,275 526,275 521,276 516,276 511,276 L 511,276 C 510,276 510,276 510,276 505,276 500,276 495,275 491,275 487,273 483,271 479,269 476,268 472,264 469,262 467,258 464,255 462,251 462,248 461,245 460,242 460,239 460,236 460,232 460,229 462,225 464,222 466,218 469,214 476,208 482,204 489,201 495,199 502,198 509,197 Z"/>
        </g>
       </g>
       <g class="com.sun.star.drawing.ClosedBezierShape">
        <g id="id6">
         <rect class="BoundingBox" stroke="none" fill="none" x="341" y="261" width="105" height="82"/>
         <path fill="rgb(255,255,255)" stroke="none" d="M 392,262 C 393,262 393,262 393,262 393,262 393,262 394,262 402,262 409,263 415,266 422,268 429,272 435,278 438,282 441,286 442,290 444,293 444,297 444,301 444,303 444,306 443,309 443,312 441,315 440,319 440,319 440,319 440,319 437,322 435,326 432,329 429,332 425,334 421,336 417,338 413,339 409,340 404,341 399,341 394,341 394,341 394,341 393,341 393,341 393,341 393,341 388,341 383,341 378,340 374,339 370,338 366,336 362,334 358,332 355,329 352,326 349,322 347,319 345,315 344,312 344,309 343,306 342,303 342,301 342,297 343,293 345,290 346,286 349,282 352,278 358,272 365,268 372,266 378,263 385,262 392,262 Z"/>
         <path fill="none" stroke="rgb(255,255,255)" d="M 392,262 L 393,262 394,262 C 402,262 409,263 415,266 422,268 429,272 435,278 438,282 441,286 442,290 444,293 444,297 444,301 444,303 444,306 443,309 443,312 441,315 440,319 L 440,319 C 437,322 435,326 432,329 429,332 425,334 421,336 417,338 413,339 409,340 404,341 399,341 394,341 L 393,341 393,341 C 388,341 383,341 378,340 374,339 370,338 366,336 362,334 358,332 355,329 352,326 349,322 347,319 345,315 344,312 344,309 343,306 342,303 342,301 342,297 343,293 345,290 346,286 349,282 352,278 358,272 365,268 372,266 378,263 385,262 392,262 Z"/>
        </g>
       </g>
       <g class="com.sun.star.drawing.ClosedBezierShape">
        <g id="id7">
         <rect class="BoundingBox" stroke="none" fill="none" x="570" y="261" width="105" height="82"/>
         <path fill="rgb(255,255,255)" stroke="none" d="M 620,262 C 621,262 621,262 621,262 622,262 622,262 622,262 630,262 637,263 643,266 650,268 657,272 663,278 666,282 669,286 670,290 672,293 673,297 673,301 673,303 672,306 671,309 671,312 669,315 668,319 668,319 668,319 668,319 666,322 663,326 660,329 657,332 653,334 649,336 645,338 641,339 637,340 632,341 627,341 622,341 622,341 622,341 622,341 621,341 621,341 621,341 616,341 611,341 606,340 602,339 598,338 594,336 590,334 587,332 583,329 580,326 578,322 575,319 573,315 573,312 572,309 571,306 571,303 571,301 571,297 571,293 573,290 574,286 577,282 580,278 587,272 593,268 600,266 606,263 613,262 620,262 Z"/>
         <path fill="none" stroke="rgb(255,255,255)" d="M 620,262 L 621,262 622,262 C 630,262 637,263 643,266 650,268 657,272 663,278 666,282 669,286 670,290 672,293 673,297 673,301 673,303 672,306 671,309 671,312 669,315 668,319 L 668,319 C 666,322 663,326 660,329 657,332 653,334 649,336 645,338 641,339 637,340 632,341 627,341 622,341 L 622,341 C 621,341 621,341 621,341 616,341 611,341 606,340 602,339 598,338 594,336 590,334 587,332 583,329 580,326 578,322 575,319 573,315 573,312 572,309 571,306 571,303 571,301 571,297 571,293 573,290 574,286 577,282 580,278 587,272 593,268 600,266 606,263 613,262 620,262 Z"/>
        </g>
       </g>
       <g class="com.sun.star.drawing.ClosedBezierShape">
        <g id="id8">
         <rect class="BoundingBox" stroke="none" fill="none" x="586" y="655" width="89" height="100"/>
         <path fill="rgb(255,255,255)" stroke="none" d="M 594,685 C 595,685 595,685 595,684 595,684 595,684 595,684 600,677 604,672 609,667 615,663 622,659 631,656 635,656 640,655 643,656 647,656 651,657 654,659 657,661 659,662 661,664 663,667 665,669 668,672 670,676 671,680 672,684 673,689 673,693 673,697 672,701 672,705 670,710 669,714 666,718 664,723 L 663,723 C 663,723 663,724 663,724 661,729 658,733 655,736 652,739 649,743 645,745 642,747 638,749 634,751 630,752 626,753 621,753 L 621,753 C 617,752 614,752 611,751 608,750 606,749 603,748 600,746 597,743 595,740 593,737 590,733 589,728 589,728 589,728 589,728 587,720 586,712 587,705 589,698 591,692 594,685 Z"/>
         <path fill="none" stroke="rgb(255,255,255)" d="M 594,685 L 595,684 595,684 C 600,677 604,672 609,667 615,663 622,659 631,656 635,656 640,655 643,656 647,656 651,657 654,659 657,661 659,662 661,664 663,667 665,669 668,672 670,676 671,680 672,684 673,689 673,693 673,697 672,701 672,705 670,710 669,714 666,718 664,723 L 663,723 663,724 C 661,729 658,733 655,736 652,739 649,743 645,745 642,747 638,749 634,751 630,752 626,753 621,753 L 621,753 C 617,752 614,752 611,751 608,750 606,749 603,748 600,746 597,743 595,740 593,737 590,733 589,728 589,728 589,728 589,728 587,720 586,712 587,705 589,698 591,692 594,685 Z"/>
        </g>
       </g>
       <g class="com.sun.star.drawing.ClosedBezierShape">
        <g id="id9">
         <rect class="BoundingBox" stroke="none" fill="none" x="699" y="458" width="90" height="100"/>
         <path fill="rgb(255,255,255)" stroke="none" d="M 708,488 L 708,488 C 709,488 709,487 709,487 L 709,487 C 713,481 717,475 723,471 728,466 735,463 744,460 749,459 753,459 757,459 761,460 764,461 768,463 770,464 772,466 775,468 777,470 779,473 781,476 781,476 781,476 781,476 784,480 785,484 786,488 787,492 787,496 787,501 786,505 785,509 783,514 782,518 780,522 777,527 777,527 777,527 777,527 777,527 777,527 777,528 774,532 772,536 768,540 765,543 762,546 759,548 755,551 752,553 748,554 744,555 739,556 735,556 L 734,556 C 731,556 728,555 725,554 722,554 719,553 717,551 713,549 711,547 708,544 706,540 704,537 702,532 700,523 700,516 701,508 702,502 705,495 708,488 Z"/>
         <path fill="none" stroke="rgb(255,255,255)" d="M 708,488 L 708,488 709,487 709,487 C 713,481 717,475 723,471 728,466 735,463 744,460 749,459 753,459 757,459 761,460 764,461 768,463 770,464 772,466 775,468 777,470 779,473 781,476 L 781,476 C 784,480 785,484 786,488 787,492 787,496 787,501 786,505 785,509 783,514 782,518 780,522 777,527 777,527 777,527 777,527 L 777,528 C 774,532 772,536 768,540 765,543 762,546 759,548 755,551 752,553 748,554 744,555 739,556 735,556 L 734,556 C 731,556 728,555 725,554 722,554 719,553 717,551 713,549 711,547 708,544 706,540 704,537 702,532 700,523 700,516 701,508 702,502 705,495 708,488 Z"/>
        </g>
       </g>
       <g class="com.sun.star.drawing.ClosedBezierShape">
        <g id="id10">
         <rect class="BoundingBox" stroke="none" fill="none" x="288" y="555" width="89" height="100"/>
         <path fill="rgb(255,255,255)" stroke="none" d="M 367,585 C 367,585 367,585 367,585 367,585 367,584 366,584 362,577 358,572 352,568 347,563 340,559 331,557 326,556 322,556 318,556 314,557 310,558 307,560 305,561 303,563 300,565 299,567 296,569 294,573 L 294,573 C 292,577 290,581 290,585 288,589 289,593 289,597 289,602 290,606 292,610 293,614 295,619 298,623 298,624 298,624 298,624 298,624 298,624 298,624 301,629 304,633 307,637 310,640 313,643 316,646 320,648 324,650 327,651 331,652 336,653 341,653 344,653 347,652 350,651 353,651 356,649 358,648 362,646 364,644 367,641 369,637 371,633 373,629 373,629 373,629 373,629 375,620 375,613 374,605 373,599 371,592 367,585 Z"/>
         <path fill="none" stroke="rgb(255,255,255)" d="M 367,585 L 367,585 366,584 C 362,577 358,572 352,568 347,563 340,559 331,557 326,556 322,556 318,556 314,557 310,558 307,560 305,561 303,563 300,565 299,567 296,569 294,573 L 294,573 C 292,577 290,581 290,585 288,589 289,593 289,597 289,602 290,606 292,610 293,614 295,619 298,623 L 298,624 298,624 C 301,629 304,633 307,637 310,640 313,643 316,646 320,648 324,650 327,651 331,652 336,653 341,653 344,653 347,652 350,651 353,651 356,649 358,648 362,646 364,644 367,641 369,637 371,633 373,629 L 373,629 C 375,620 375,613 374,605 373,599 371,592 367,585 Z"/>
        </g>
       </g>
      </g>
     </g>
    </g>
   </g>
  </g>
 </g>
</svg>